# xmcd
#
# Track frame offsets:
#	150
#	19218
#	39488
#	60190
#	80783
#	98583
#	122813
#	140950
#	156900
#
# Disc length: 2304 seconds
#
# Revision: 0
# Processed by: cddbd v1.5.2PL0 Copyright (c) Steve Scherf et al.
# Submitted via: EZCDAudioConverter 5.0.0.1
#
DISCID=7508fe09
DTITLE=The 3 Pieces - Vibes of Truth
DYEAR=1999
DGENRE=R&B
TTITLE0=I Need You Girl
TTITLE1=Backed Up Against The Wall
TTITLE2=Vibes of Truth
TTITLE3=Shortnin' Bread
TTITLE4=Self Dealin'
TTITLE5=Concrete Jungle
TTITLE6=If Only I Could Prove To You
TTITLE7=Cool It
TTITLE8=Virtue
EXTD=
EXTT0=
EXTT1=
EXTT2=
EXTT3=
EXTT4=
EXTT5=
EXTT6=
EXTT7=
EXTT8=
PLAYORDER=
